<?xml version="1.0" encoding="UTF-8"?>
<svg id="Layer_2" data-name="Layer 2" xmlns="http://www.w3.org/2000/svg" viewBox="0 0 1265.02 1544.98">
  <defs>
    <style>
      .cls-1 {
        fill: #f5f5f5;
      }
    </style>
  </defs>
  <g id="Layer_1-2" data-name="Layer 1">
    <path class="cls-1" d="M263.47,1146.04l19.8-20.08,245.03-245.34,103.53-103.94,169.54,169.66,81.34,81.69,120.14,120.18,151.04-149.01-273-264.49,381.28-.02h2.4c.35,0,.45-1,.45-1.83v-210.82s-141.51-.12-141.51-.12h-237.62c-1.75-.26-2.27-.15-1.95-.5l1.51-1.61,176.38-166.93,1.29-1.21,92.01-87.09-81.38-82.27-69.68-70.42-258.77,264.71-2.17-1.52V0s-224.76.04-224.76.04v376.4S259.86,111.98,259.86,111.98l-149.92,152.59,271.93,257.36H.04s-.04,212.75-.04,212.75l384.17.02L111.13,999.19l58.63,58.14,90.95,90.77,2.76-2.07ZM745.52,1544.86v-504.82s-224.77,0-224.77,0v504.94s224.77-.12,224.77-.12Z"/>
  </g>
</svg>