<?xml version="1.0" encoding="UTF-8"?>
<svg id="Layer_2" data-name="Layer 2" xmlns="http://www.w3.org/2000/svg" viewBox="0 0 454.45 68">
  <defs>
    <style>
      .cls-1 {
        fill: #f5f5f5;
      }
    </style>
  </defs>
  <g id="Layer_1-2" data-name="Layer 1">
    <g>
      <path class="cls-1" d="M14.4,33.98v-.29l23.45,19.58h-11.03L7.76,36.92l.16-.09v16.45H0V0h7.92v31.28l-.16-.07L26.05,13.59h9.97l-21.62,20.39Z"/>
      <path class="cls-1" d="M65.02,14.02h6.55v39.26h-6.55v-6.86c-1.35,2.12-2.68,3.7-3.99,4.75-1.31,1.05-2.66,1.85-4.05,2.39-1.39.54-2.9.82-4.53.82-3.64,0-6.72-1.03-9.25-3.08s-3.8-6.18-3.8-12.39V14.02h6.55v22.13c0,5.74.76,9.21,2.28,10.41,1.52,1.2,3.4,1.8,5.65,1.8,1.95,0,3.79-.57,5.51-1.7,1.72-1.13,3.09-2.73,4.11-4.78,1.01-2.05,1.52-4.91,1.52-8.56V14.02Z"/>
      <path class="cls-1" d="M84.38,39.38c.56,1.69,1.35,3.14,2.38,4.33s2.29,2.11,3.77,2.75c1.48.64,3.15.95,5,.95,1.26,0,2.42-.16,3.48-.47s2.02-.78,2.89-1.4c.86-.62,1.63-1.38,2.29-2.29s1.23-1.97,1.68-3.19h7.81c-.53,2.23-1.34,4.23-2.44,6-1.1,1.77-2.44,3.27-4.02,4.49-1.58,1.22-3.38,2.16-5.39,2.82-2.01.65-4.19.98-6.52.98-2.94,0-5.61-.5-8.02-1.51-2.41-1.01-4.47-2.43-6.18-4.27-1.72-1.84-3.04-4.04-3.99-6.62-.94-2.58-1.41-5.44-1.41-8.59s.46-5.96,1.4-8.52c.93-2.56,2.24-4.76,3.94-6.59,1.7-1.83,3.74-3.25,6.12-4.25,2.38-1,5.02-1.5,7.93-1.5s5.44.49,7.75,1.47c2.31.98,4.28,2.37,5.91,4.18,1.63,1.81,2.89,3.99,3.78,6.54s1.33,5.42,1.33,8.59c0,.46-.01.91-.04,1.37-.02.46-.06.95-.11,1.48h-32.11v-6.37h28.28l-3.94,6.3c.04-.42.06-.85.08-1.29.02-.44.03-.87.03-1.3,0-2.26-.24-4.25-.72-5.99-.48-1.74-1.19-3.2-2.12-4.39-.93-1.19-2.07-2.09-3.43-2.71-1.36-.62-2.91-.93-4.66-.93s-3.41.32-4.84.95c-1.43.64-2.64,1.55-3.65,2.75-1,1.19-1.77,2.64-2.3,4.35-.53,1.7-.8,3.62-.8,5.76v.43c0,2.11.28,4.01.84,5.71Z"/>
      <path class="cls-1" d="M154.01,13.59l-14.09,39.69h-11.99l-13.93-39.69h8.24l12.58,37.08h-1.58l12.73-37.08h8.05Z"/>
      <path class="cls-1" d="M165.77,9.07h-8.24V0h8.24v9.07ZM165.6,53.28h-7.92V13.59h7.92v39.69Z"/>
    </g>
    <g>
      <path class="cls-1" d="M273.75,0v53.28h-7.92v-12.4l.05-.04c-.49,2.08-1.19,3.95-2.09,5.62s-1.97,3.09-3.21,4.26c-1.24,1.17-2.64,2.07-4.2,2.7-1.56.63-3.24.95-5.04.95-1.62,0-3.16-.23-4.61-.7-1.45-.47-2.79-1.14-4.02-2.02-1.23-.88-2.34-1.93-3.34-3.17-1-1.24-1.84-2.63-2.53-4.19-.69-1.55-1.22-3.25-1.59-5.08-.37-1.83-.56-3.76-.56-5.79s.19-3.96.56-5.79c.37-1.83.9-3.52,1.59-5.07.69-1.55,1.53-2.94,2.53-4.19,1-1.24,2.11-2.3,3.34-3.17,1.23-.87,2.57-1.54,4.02-2.01,1.45-.47,2.99-.7,4.61-.7,1.8,0,3.48.31,5.04.94,1.56.63,2.96,1.53,4.2,2.7,1.24,1.17,2.31,2.59,3.21,4.25s1.6,3.53,2.09,5.61l-.05-.02V0h7.92ZM265.47,29.35c-.24-1.25-.59-2.4-1.05-3.44-.46-1.04-1.03-1.96-1.71-2.76-.68-.8-1.45-1.48-2.31-2.03-.86-.55-1.82-.96-2.88-1.25-1.06-.29-2.19-.43-3.4-.43-1.87,0-3.52.3-4.95.91-1.43.61-2.62,1.5-3.59,2.67-.97,1.18-1.7,2.64-2.2,4.38-.5,1.75-.75,3.75-.75,6.02s.25,4.27.75,6.02c.5,1.75,1.23,3.21,2.2,4.39.97,1.18,2.17,2.08,3.59,2.68s3.07.91,4.94.91c1.21,0,2.35-.14,3.4-.43,1.06-.29,2.02-.7,2.88-1.25.86-.55,1.63-1.22,2.31-2.02.68-.8,1.25-1.72,1.71-2.76.46-1.04.81-2.19,1.05-3.45.24-1.26.36-2.62.36-4.09s-.12-2.82-.36-4.08Z"/>
      <path class="cls-1" d="M287.08,39.38c.56,1.69,1.35,3.14,2.38,4.33s2.29,2.11,3.77,2.75c1.48.64,3.15.95,5,.95,1.26,0,2.42-.16,3.48-.47s2.02-.78,2.89-1.4c.86-.62,1.63-1.38,2.29-2.29s1.23-1.97,1.68-3.19h7.81c-.53,2.23-1.34,4.23-2.44,6-1.1,1.77-2.44,3.27-4.02,4.49-1.58,1.22-3.38,2.16-5.39,2.82-2.01.65-4.19.98-6.52.98-2.94,0-5.61-.5-8.02-1.51-2.41-1.01-4.47-2.43-6.18-4.27-1.72-1.84-3.04-4.04-3.99-6.62-.94-2.58-1.41-5.44-1.41-8.59s.46-5.96,1.4-8.52c.93-2.56,2.24-4.76,3.94-6.59,1.7-1.83,3.74-3.25,6.12-4.25,2.38-1,5.02-1.5,7.93-1.5s5.44.49,7.75,1.47c2.31.98,4.28,2.37,5.91,4.18,1.63,1.81,2.89,3.99,3.78,6.54s1.33,5.42,1.33,8.59c0,.46-.01.91-.04,1.37-.02.46-.06.95-.11,1.48h-32.11v-6.37h28.28l-3.94,6.3c.04-.42.06-.85.08-1.29.02-.44.03-.87.03-1.3,0-2.26-.24-4.25-.72-5.99-.48-1.74-1.19-3.2-2.12-4.39-.93-1.19-2.07-2.09-3.43-2.71-1.36-.62-2.91-.93-4.66-.93s-3.41.32-4.84.95c-1.43.64-2.64,1.55-3.65,2.75-1,1.19-1.77,2.64-2.3,4.35-.53,1.7-.8,3.62-.8,5.76v.43c0,2.11.28,4.01.84,5.71Z"/>
      <path class="cls-1" d="M344.87,13.44c2.14.62,3.95,1.5,5.42,2.64,1.47,1.14,2.59,2.53,3.35,4.16.76,1.63,1.14,3.46,1.14,5.49h-7.74c0-1-.2-1.9-.61-2.72-.41-.82-1.01-1.52-1.81-2.1-.8-.58-1.79-1.03-2.96-1.34-1.18-.31-2.53-.47-4.07-.47-1.36,0-2.6.13-3.74.38-1.14.25-2.12.61-2.93,1.08-.81.47-1.44,1.03-1.89,1.67-.45.65-.68,1.37-.68,2.16,0,.61.13,1.14.39,1.59.26.45.61.85,1.04,1.2.44.35.95.64,1.55.88.59.24,1.23.45,1.92.62.68.17,1.4.32,2.14.45s1.48.25,2.21.37l2.65.41c1.12.18,2.28.38,3.49.61,1.21.23,2.41.52,3.58.88,1.18.36,2.3.82,3.38,1.38,1.07.56,2.02,1.26,2.83,2.1.81.84,1.46,1.85,1.94,3.02.49,1.18.73,2.56.73,4.16,0,1.96-.39,3.7-1.16,5.23-.77,1.53-1.92,2.82-3.44,3.86-1.52,1.04-3.39,1.84-5.62,2.39s-4.8.82-7.7.82c-3.05,0-5.72-.3-8.01-.89-2.29-.59-4.2-1.47-5.73-2.62-1.53-1.15-2.68-2.56-3.46-4.24s-1.16-3.6-1.16-5.79h7.74c0,1.12.21,2.1.64,2.96.43.86,1.08,1.58,1.95,2.18.88.59,1.98,1.04,3.3,1.34,1.33.3,2.89.45,4.69.45,1.62,0,3.06-.12,4.32-.36,1.26-.24,2.33-.6,3.2-1.07.88-.47,1.54-1.05,2.01-1.74s.69-1.46.69-2.34c0-.71-.13-1.32-.4-1.84-.27-.52-.64-.97-1.1-1.37s-1.02-.74-1.67-1.02-1.35-.53-2.11-.74c-.76-.21-1.55-.39-2.38-.54-.83-.15-1.68-.3-2.55-.46l-2.65-.47c-1-.17-2.06-.36-3.19-.58-1.13-.22-2.25-.5-3.36-.85s-2.17-.78-3.19-1.31-1.92-1.17-2.7-1.95-1.4-1.7-1.86-2.77c-.46-1.07-.69-2.33-.69-3.8,0-1.85.39-3.51,1.17-5,.78-1.48,1.9-2.75,3.36-3.8,1.46-1.05,3.23-1.86,5.33-2.42,2.09-.56,4.46-.85,7.08-.85s5.17.31,7.32.93Z"/>
      <path class="cls-1" d="M368.61,9.07h-8.24V0h8.24v9.07ZM368.44,53.28h-7.92V13.59h7.92v39.69Z"/>
      <path class="cls-1" d="M412.17,13.59v32.83c0,3.24-.46,6.19-1.39,8.84-.93,2.65-2.24,4.92-3.93,6.8-1.69,1.88-3.73,3.34-6.12,4.38-2.39,1.04-5.04,1.56-7.96,1.56-1.69,0-3.31-.17-4.84-.51-1.54-.34-2.96-.83-4.28-1.47-1.32-.64-2.51-1.41-3.58-2.31-1.07-.91-1.98-1.91-2.75-3.02-.76-1.11-1.35-2.32-1.75-3.62-.41-1.3-.61-2.66-.61-4.08h7.92c0,1.18.26,2.27.77,3.29.52,1.01,1.22,1.9,2.12,2.65.89.75,1.94,1.34,3.15,1.76,1.21.43,2.5.64,3.88.64,1.74,0,3.32-.35,4.73-1.05,1.42-.7,2.62-1.7,3.62-3.01s1.76-2.87,2.3-4.71c.54-1.84.81-3.88.81-6.14v-6.93l.05-.04c-.49,1.99-1.19,3.78-2.1,5.37-.91,1.59-1.99,2.95-3.25,4.07s-2.68,1.98-4.25,2.57c-1.57.59-3.29.89-5.15.89-1.58,0-3.09-.22-4.53-.67-1.43-.44-2.76-1.08-3.97-1.92-1.21-.83-2.31-1.85-3.29-3.03-.98-1.19-1.82-2.52-2.51-4-.69-1.48-1.22-3.08-1.59-4.82-.37-1.74-.56-3.58-.56-5.53s.19-3.78.56-5.52c.37-1.73.9-3.34,1.59-4.81s1.53-2.8,2.51-3.98c.98-1.18,2.08-2.18,3.29-3.01,1.21-.83,2.53-1.46,3.97-1.91,1.43-.44,2.94-.67,4.53-.67,1.86,0,3.58.3,5.15.89,1.57.59,2.99,1.45,4.25,2.56,1.26,1.12,2.34,2.46,3.25,4.04.91,1.58,1.6,3.36,2.1,5.35l-.05-.04v-11.74h7.92ZM403.88,28.61c-.24-1.17-.59-2.23-1.06-3.19s-1.04-1.81-1.71-2.56c-.67-.74-1.45-1.37-2.34-1.88-.89-.51-1.87-.89-2.94-1.15-1.07-.26-2.24-.39-3.5-.39-1.81,0-3.42.28-4.82.83-1.4.55-2.59,1.38-3.55,2.48-.96,1.1-1.69,2.45-2.18,4.07-.49,1.61-.74,3.48-.74,5.59s.25,3.99.74,5.61c.49,1.61,1.22,2.97,2.18,4.08s2.14,1.94,3.55,2.5c1.4.56,3.01.85,4.82.85,1.26,0,2.43-.13,3.5-.4,1.07-.26,2.05-.65,2.93-1.16.88-.51,1.66-1.14,2.34-1.89.68-.75,1.25-1.61,1.72-2.57.47-.97.82-2.04,1.06-3.21.24-1.18.36-2.44.36-3.8s-.12-2.62-.36-3.79Z"/>
      <path class="cls-1" d="M425.63,53.28h-7.92V13.59h7.92v11.75l-.05.04c.46-2.02,1.12-3.82,2.01-5.42.88-1.6,1.95-2.94,3.2-4.04,1.25-1.1,2.67-1.94,4.26-2.53,1.59-.59,3.31-.88,5.17-.88,2.26,0,4.26.42,6.02,1.25,1.76.83,3.24,2.04,4.46,3.63,1.21,1.58,2.14,3.52,2.79,5.81.65,2.29.97,4.86.97,7.73v22.36h-7.92v-22.03c0-1.93-.2-3.62-.6-5.08-.4-1.45-1.01-2.67-1.83-3.65-.82-.98-1.83-1.71-3.05-2.2-1.22-.49-2.64-.73-4.27-.73-1.16,0-2.25.12-3.25.37-1,.25-1.92.61-2.75,1.09-.83.48-1.56,1.07-2.21,1.77-.64.7-1.18,1.51-1.61,2.42-.43.91-.76,1.93-.99,3.04-.23,1.12-.34,2.32-.34,3.62v21.37Z"/>
    </g>
    <circle class="cls-1" cx="201.37" cy="30.43" r="23.94"/>
  </g>
</svg>